<svg width="50" height="27" viewBox="0 0 50 27" fill="none" xmlns="http://www.w3.org/2000/svg">
<path d="M11.744 9.008C13.472 9.008 14.8693 9.72267 15.936 11.152C17.0027 12.56 17.536 14.608 17.536 17.296C17.536 20.432 16.8533 22.7467 15.488 24.24C14.1227 25.712 12.3627 26.448 10.208 26.448C8.736 26.448 7.54133 26.0747 6.624 25.328C5.856 25.264 5.088 25.3493 4.32 25.584C3.552 25.8187 2.944 26.128 2.496 26.512L2.016 26.224C2.16533 25.6907 2.24 25.0933 2.24 24.432V4.816C2.24 3.83467 2.08 3.12 1.76 2.672C1.46133 2.224 0.938667 2 0.192 2V1.328C0.853333 1.392 1.51467 1.424 2.176 1.424C4.032 1.424 5.58933 1.27467 6.848 0.975998V12.048C7.296 11.0667 7.94667 10.32 8.8 9.808C9.65333 9.27467 10.6347 9.008 11.744 9.008ZM9.216 25.776C10.3893 25.776 11.264 25.1147 11.84 23.792C12.416 22.4693 12.704 20.4533 12.704 17.744C12.704 15.12 12.4587 13.2427 11.968 12.112C11.4773 10.96 10.7733 10.384 9.856 10.384C9.17333 10.384 8.544 10.64 7.968 11.152C7.41333 11.6427 7.04 12.3147 6.848 13.168V24.912C7.552 25.488 8.34133 25.776 9.216 25.776ZM41.127 9.552C42.215 9.552 43.0257 9.52 43.559 9.456V10.096C43.111 10.224 42.7057 10.4907 42.343 10.896C41.9803 11.3013 41.6603 11.952 41.383 12.848L37.127 26.064C36.8923 26.0427 36.5403 26.032 36.071 26.032C35.623 26.032 35.2817 26.0427 35.047 26.064L30.695 14.192L27.143 26.064C26.9297 26.0427 26.5883 26.032 26.119 26.032C25.6497 26.032 25.2977 26.0427 25.063 26.064L20.007 11.92C19.751 11.1733 19.463 10.6933 19.143 10.48C18.823 10.2453 18.4923 10.128 18.151 10.128V9.456C19.5377 9.584 21.0523 9.648 22.695 9.648C23.7617 9.648 25.1483 9.584 26.855 9.456V10.128C26.151 10.128 25.639 10.1813 25.319 10.288C25.0203 10.3947 24.871 10.6507 24.871 11.056C24.871 11.3333 24.9243 11.6213 25.031 11.92L27.911 20.976L31.399 9.424L32.583 9.456L33.735 9.424L37.895 21.648L39.911 15.216C40.2097 14.2133 40.359 13.4027 40.359 12.784C40.359 11.12 39.5163 10.224 37.831 10.096V9.456C38.8337 9.52 39.9323 9.552 41.127 9.552ZM46.4763 21.52C47.3083 21.52 47.9696 21.744 48.4603 22.192C48.9509 22.6187 49.1963 23.216 49.1963 23.984C49.1963 24.752 48.9509 25.36 48.4603 25.808C47.9696 26.2347 47.3083 26.448 46.4763 26.448C45.6443 26.448 44.9829 26.2347 44.4923 25.808C44.0016 25.36 43.7563 24.752 43.7563 23.984C43.7563 23.216 44.0016 22.6187 44.4923 22.192C44.9829 21.744 45.6443 21.52 46.4763 21.52Z" fill="#EEBB94"/>
</svg>
