<svg width="19" height="19" viewBox="0 0 19 19" fill="none" xmlns="http://www.w3.org/2000/svg">
<path d="M9.59661 1.71185C12.1031 1.71185 12.3973 1.72316 13.388 1.76841C14.3041 1.80988 14.7995 1.96448 15.1309 2.09645C15.5704 2.26989 15.8832 2.47351 16.211 2.80532C16.5387 3.13713 16.7436 3.45386 16.9111 3.89879C17.0378 4.23437 17.1942 4.73586 17.2352 5.66343C17.2799 6.6664 17.291 6.96428 17.291 9.50189C17.291 12.0395 17.2799 12.3374 17.2352 13.3403C17.1942 14.2679 17.0415 14.7694 16.9111 15.105C16.7398 15.5499 16.5387 15.8666 16.211 16.1985C15.8832 16.5303 15.5704 16.7376 15.1309 16.9073C14.7995 17.0355 14.3041 17.1939 13.388 17.2354C12.3973 17.2806 12.1031 17.2919 9.59661 17.2919C7.09015 17.2919 6.79593 17.2806 5.80527 17.2354C4.88909 17.1939 4.39376 17.0393 4.06229 16.9073C3.62283 16.7339 3.30999 16.5303 2.98225 16.1985C2.65451 15.8666 2.44967 15.5499 2.28208 15.105C2.15545 14.7694 1.99903 14.2679 1.95806 13.3403C1.91337 12.3374 1.9022 12.0395 1.9022 9.50189C1.9022 6.96428 1.91337 6.6664 1.95806 5.66343C1.99903 4.73586 2.15173 4.23437 2.28208 3.89879C2.45339 3.45386 2.65451 3.13713 2.98225 2.80532C3.30999 2.47351 3.62283 2.26612 4.06229 2.09645C4.39376 1.96825 4.88909 1.80988 5.80527 1.76841C6.79593 1.71939 7.09388 1.71185 9.59661 1.71185ZM9.59661 0C7.04919 0 6.7289 0.0113118 5.72706 0.0565588C4.72895 0.101806 4.0474 0.263941 3.45151 0.497718C2.83327 0.739036 2.31187 1.06708 1.79047 1.59496C1.26907 2.12284 0.948776 2.6545 0.706696 3.27664C0.475789 3.87994 0.315644 4.56995 0.270952 5.58424C0.226261 6.59476 0.215088 6.91903 0.215088 9.49811C0.215088 12.0772 0.226261 12.4015 0.270952 13.4158C0.315644 14.4263 0.475789 15.1163 0.706696 15.7234C0.945052 16.3493 1.26907 16.8772 1.79047 17.405C2.31187 17.9329 2.837 18.2572 3.45151 18.5023C4.0474 18.7361 4.72895 18.8982 5.73078 18.9434C6.73262 18.9887 7.04919 19 9.60034 19C12.1515 19 12.4681 18.9887 13.4699 18.9434C14.468 18.8982 15.1495 18.7361 15.7492 18.5023C16.3674 18.261 16.8888 17.9329 17.4102 17.405C17.9316 16.8772 18.2519 16.3455 18.494 15.7234C18.7249 15.1201 18.885 14.43 18.9297 13.4158C18.9744 12.4015 18.9856 12.081 18.9856 9.49811C18.9856 6.91526 18.9744 6.59476 18.9297 5.58047C18.885 4.56995 18.7249 3.87994 18.494 3.27287C18.2556 2.64695 17.9316 2.11907 17.4102 1.59119C16.8888 1.06331 16.3637 0.739036 15.7492 0.493947C15.1533 0.260171 14.4717 0.0980353 13.4699 0.0527883C12.4643 0.0113118 12.144 0 9.59661 0Z" fill-opacity="0.64"/>
<path d="M9.59635 4.62274C6.9372 4.62274 4.7771 6.80591 4.7771 9.50188C4.7771 12.1979 6.93347 14.381 9.59635 14.381C12.2592 14.381 14.4156 12.1979 14.4156 9.50188C14.4156 6.80591 12.2592 4.62274 9.59635 4.62274ZM9.59635 12.6654C7.86827 12.6654 6.46793 11.2477 6.46793 9.49811C6.46793 7.74856 7.86827 6.33082 9.59635 6.33082C11.3244 6.33082 12.7248 7.74856 12.7248 9.49811C12.7248 11.2477 11.3244 12.6654 9.59635 12.6654Z" fill-opacity="0.64"/>
<path d="M14.6059 5.5654C15.2272 5.5654 15.7309 5.05558 15.7309 4.42668C15.7309 3.79779 15.2272 3.28796 14.6059 3.28796C13.9846 3.28796 13.481 3.79779 13.481 4.42668C13.481 5.05558 13.9846 5.5654 14.6059 5.5654Z" fill="white" fill-opacity="0.64"/>
</svg>
