<?xml version="1.0" standalone="no"?>
<!DOCTYPE svg PUBLIC "-//W3C//DTD SVG 20010904//EN"
 "http://www.w3.org/TR/2001/REC-SVG-20010904/DTD/svg10.dtd">
<svg version="1.0" xmlns="http://www.w3.org/2000/svg"
 width="512.000000pt" height="512.000000pt" viewBox="0 0 512.000000 512.000000"
 preserveAspectRatio="xMidYMid meet">
<metadata>
Created by potrace 1.11, written by Peter Selinger 2001-2013
</metadata>
<g transform="translate(0.000000,512.000000) scale(0.100000,-0.100000)"
fill="#000000" stroke="none">
<path d="M650 3830 c-103 -24 -244 -34 -457 -33 l-173 1 0 -32 c0 -28 3 -31
31 -32 47 -2 102 -31 126 -67 55 -79 53 -41 50 -1247 -2 -613 -7 -1127 -11
-1142 -7 -23 -5 -29 16 -39 21 -9 32 -6 73 20 65 41 184 79 276 87 74 6 78 6
141 -29 121 -68 183 -83 348 -81 121 1 203 19 305 68 70 33 161 100 216 159
75 81 142 226 174 375 45 218 39 512 -16 711 -51 186 -168 344 -309 416 -113
58 -297 68 -426 23 -121 -43 -239 -137 -282 -225 -9 -18 -19 -33 -24 -33 -5 0
-8 240 -8 533 1 634 2 577 -7 576 -5 -1 -24 -5 -43 -9z m451 -976 c92 -47 163
-211 187 -433 9 -88 9 -496 -1 -593 -20 -210 -77 -370 -161 -452 -97 -96 -266
-98 -396 -6 l-30 21 3 622 2 622 37 65 c37 66 58 89 116 130 68 46 178 58 243
24z"/>
<path d="M3215 2970 c-1 -3 -7 -21 -13 -40 -6 -19 -26 -87 -46 -150 -53 -174
-136 -448 -216 -715 -39 -132 -75 -246 -79 -253 -5 -8 -12 2 -20 30 -7 24 -30
97 -51 163 -21 66 -61 194 -90 285 -28 91 -59 185 -67 210 -86 257 -99 334
-63 370 11 11 27 21 35 21 8 1 20 3 25 4 6 1 35 3 65 4 l55 1 0 36 0 35 -92
-7 c-125 -10 -568 -10 -695 -1 l-103 8 0 -36 c0 -30 3 -35 23 -35 24 0 84 -33
105 -59 19 -23 55 -104 87 -196 15 -44 33 -91 38 -105 6 -14 11 -29 13 -35 2
-11 36 -105 194 -545 56 -157 124 -346 150 -420 27 -74 59 -164 72 -200 l23
-65 107 -1 107 -2 10 32 c22 69 314 1045 328 1096 8 30 18 61 22 68 4 7 26
-40 53 -115 26 -70 61 -166 78 -213 18 -47 35 -96 40 -110 4 -14 47 -131 95
-260 48 -129 108 -293 135 -365 l47 -130 109 0 108 0 53 165 c30 91 55 172 58
181 2 9 28 92 59 185 30 93 93 288 140 434 47 146 99 307 115 358 16 51 42
117 56 147 30 60 109 141 149 151 21 5 26 12 26 38 l0 31 -294 0 -293 1 -1
-28 c-1 -28 3 -31 68 -43 179 -36 232 -199 156 -480 -15 -55 -101 -331 -145
-465 -10 -30 -29 -90 -41 -132 -13 -43 -26 -78 -29 -78 -4 0 -27 62 -53 138
-40 117 -283 833 -351 1031 l-22 64 -118 1 c-66 1 -120 -1 -122 -4z"/>
<path d="M4677 1729 c-72 -16 -140 -67 -170 -126 -24 -45 -31 -122 -17 -187
28 -138 201 -219 366 -171 110 31 173 106 180 212 8 130 -59 234 -170 264 -53
15 -141 18 -189 8z"/>
</g>
</svg>
