<?xml version="1.0" standalone="no"?>
<!DOCTYPE svg PUBLIC "-//W3C//DTD SVG 20010904//EN"
 "http://www.w3.org/TR/2001/REC-SVG-20010904/DTD/svg10.dtd">
<svg version="1.0" xmlns="http://www.w3.org/2000/svg"
 width="1408.000000pt" height="1408.000000pt" viewBox="0 0 1408.000000 1408.000000"
 preserveAspectRatio="xMidYMid meet">
<metadata>
Created by potrace 1.14, written by Peter Selinger 2001-2017
</metadata>
<g transform="translate(0.000000,1408.000000) scale(0.100000,-0.100000)"
fill="#000000" stroke="none">
<path d="M10214 13387 c-270 -103 -739 -597 -1380 -1452 -232 -309 -445 -612
-717 -1022 -56 -84 -103 -151 -104 -149 -3 3 406 1228 505 1511 107 307 186
520 284 773 l72 184 -25 45 -24 45 -75 -6 c-275 -22 -570 -28 -1085 -22 -602
6 -843 15 -1250 46 -322 24 -873 44 -1020 37 -153 -7 -258 -47 -435 -165 -329
-219 -631 -597 -705 -882 -22 -84 -20 -258 4 -351 87 -338 406 -739 864 -1085
l89 -67 55 55 55 55 -21 84 c-50 204 -78 492 -61 640 43 378 342 792 695 964
172 84 507 160 875 200 80 8 164 18 188 21 l43 5 21 -48 c43 -98 29 -168 -176
-878 -37 -126 -78 -264 -91 -305 -13 -41 -42 -138 -65 -215 -23 -77 -70 -230
-105 -340 -35 -110 -100 -319 -145 -465 -196 -634 -385 -1221 -632 -1970 -230
-696 -571 -1713 -760 -2264 -66 -193 -130 -382 -143 -421 -12 -38 -91 -266
-175 -505 -84 -239 -161 -460 -171 -490 -53 -163 -435 -1256 -556 -1590 -301
-837 -657 -1758 -750 -1943 l-24 -48 29 -47 c33 -53 8 -46 290 -87 531 -76
1123 -121 1752 -132 472 -8 706 8 1025 68 567 107 1190 370 1677 709 769 535
1414 1358 1741 2225 90 237 174 548 209 775 20 126 23 183 22 440 0 284 -3
344 -40 640 -28 226 -109 572 -201 855 -114 355 -295 741 -467 998 -112 167
-210 300 -245 331 -11 11 -21 23 -21 27 0 4 37 34 83 65 394 276 713 554 983
857 176 197 242 281 358 457 277 417 460 849 581 1370 69 294 112 711 102 980
-14 398 -179 923 -386 1233 -127 190 -243 268 -401 274 -70 3 -96 -1 -146 -20z
m-517 -1327 c43 -26 77 -79 113 -178 74 -202 140 -745 125 -1031 -20 -411 -79
-709 -208 -1051 -127 -338 -304 -641 -541 -929 -342 -413 -914 -832 -1576
-1154 -135 -65 -247 -120 -249 -122 -2 -2 4 -36 14 -75 17 -69 19 -71 94 -134
179 -149 369 -372 511 -598 82 -131 224 -412 277 -548 118 -305 191 -629 240
-1070 25 -227 25 -875 0 -1045 -58 -396 -132 -646 -282 -950 -327 -667 -861
-1147 -1540 -1385 -458 -160 -998 -185 -1354 -64 -114 39 -241 99 -241 113 0
5 13 47 30 92 16 46 111 334 210 639 100 305 194 593 210 640 16 47 126 382
245 745 119 363 263 802 320 975 57 173 152 461 210 640 58 179 119 363 135
410 16 47 110 335 210 640 100 305 194 593 210 640 16 47 77 231 135 410 107
326 211 644 454 1384 l132 398 176 252 c312 445 856 1184 1127 1531 326 418
579 720 654 782 83 70 106 76 159 43z"/>
</g>
</svg>
