<svg width="25" height="19" viewBox="0 0 25 19" fill="none" xmlns="http://www.w3.org/2000/svg">
<path d="M24.4873 3.40771C24.2101 2.32083 23.3787 1.46276 22.3256 1.16244C20.4271 0.633301 12.8058 0.633301 12.8058 0.633301C12.8058 0.633301 5.1844 0.633301 3.27212 1.16244C2.21899 1.44846 1.40142 2.30653 1.11043 3.40771C0.611572 5.38126 0.611572 9.49997 0.611572 9.49997C0.611572 9.49997 0.611572 13.6187 1.12428 15.5922C1.40142 16.6791 2.23285 17.5372 3.28598 17.8375C5.1844 18.3666 12.8058 18.3666 12.8058 18.3666C12.8058 18.3666 20.4271 18.3666 22.3394 17.8375C23.3926 17.5515 24.2101 16.6934 24.5011 15.5922C25 13.6187 25 9.49997 25 9.49997C25 9.49997 25 5.38126 24.4873 3.40771ZM10.3115 13.2468V5.75309L16.6857 9.49997L10.3115 13.2468Z" fill="white" fill-opacity="0.64"/>
</svg>
